<?xml version="1.0" standalone="no"?>
<!DOCTYPE svg PUBLIC "-//W3C//DTD SVG 20010904//EN"
 "http://www.w3.org/TR/2001/REC-SVG-20010904/DTD/svg10.dtd">
<svg version="1.0" xmlns="http://www.w3.org/2000/svg"
 width="316.000000pt" height="316.000000pt" viewBox="0 0 316.000000 316.000000"
 preserveAspectRatio="xMidYMid meet">
<metadata>
Created by potrace 1.14, written by Peter Selinger 2001-2017
</metadata>
<g transform="translate(0.000000,316.000000) scale(0.100000,-0.100000)"
fill="#000000" stroke="none">
<path d="M1209 2702 c-35 -3 -36 -4 -42 -52 -3 -27 -15 -68 -26 -92 -10 -24
-20 -47 -21 -53 -1 -5 -11 -22 -21 -37 -10 -14 -19 -28 -19 -31 0 -3 -46 -99
-101 -214 -56 -114 -134 -275 -174 -358 -83 -172 -239 -492 -344 -706 -39 -81
-78 -152 -86 -159 -8 -7 -15 -16 -15 -20 0 -4 409 -8 909 -8 834 0 911 1 924
16 16 19 237 359 237 365 0 2 -44 -6 -97 -19 -54 -14 -127 -29 -163 -35 -36
-5 -76 -12 -90 -15 -14 -3 -208 -7 -432 -10 -401 -5 -408 -5 -400 14 4 11 51
111 106 224 l99 204 273 0 c204 0 276 4 288 13 8 7 36 52 62 99 25 48 57 105
70 128 l24 41 -193 2 c-208 3 -381 7 -384 10 0 0 27 58 61 129 35 70 80 162
100 204 21 43 43 84 51 91 19 20 579 21 690 2 114 -20 189 -41 277 -79 l76
-33 48 106 c26 58 62 139 81 179 18 40 34 78 36 84 1 10 -197 13 -883 13 -487
0 -901 -1 -921 -3z"/>
<path d="M200 570 c-33 -58 -60 -109 -60 -113 0 -7 76 -4 165 8 22 2 72 7 110
11 39 3 88 7 110 9 22 2 72 7 110 10 39 3 86 8 105 10 19 2 64 6 100 10 36 3
85 7 110 9 25 3 74 7 110 10 36 4 88 9 115 11 28 3 77 7 110 10 92 9 156 15
205 20 47 5 142 14 220 20 25 2 68 6 95 9 28 3 77 8 110 11 224 18 278 24 284
31 2 2 -76 4 -175 4 -98 1 -285 3 -414 5 -129 2 -444 7 -700 10 -256 4 -506 8
-557 9 l-92 2 -61 -106z"/>
</g>
</svg>
